<mxfile host="Electron" modified="2024-01-01T04:51:04.032Z" agent="Mozilla/5.0 (Windows NT 10.0; Win64; x64) AppleWebKit/537.36 (KHTML, like Gecko) draw.io/21.6.8 Chrome/114.0.5735.289 Electron/25.5.0 Safari/537.36" etag="bcHbE3YMPqqe3DEQcwEr" version="21.6.8" type="device">
  <diagram name="第 1 页" id="rGJze4yEYZF8ba3LUUvo">
    <mxGraphModel dx="715" dy="242" grid="1" gridSize="10" guides="1" tooltips="1" connect="1" arrows="1" fold="1" page="1" pageScale="1" pageWidth="1169" pageHeight="827" math="0" shadow="0">
      <root>
        <mxCell id="0" />
        <mxCell id="1" parent="0" />
        <mxCell id="tu22LOOGb7ljT6TSJ0Hp-1" value="Q" style="text;html=1;strokeColor=none;fillColor=none;align=center;verticalAlign=middle;whiteSpace=wrap;rounded=0;" vertex="1" parent="1">
          <mxGeometry x="160" y="120" width="40" height="40" as="geometry" />
        </mxCell>
        <mxCell id="tu22LOOGb7ljT6TSJ0Hp-2" value="K" style="text;html=1;strokeColor=none;fillColor=none;align=center;verticalAlign=middle;whiteSpace=wrap;rounded=0;" vertex="1" parent="1">
          <mxGeometry x="160" y="160" width="40" height="40" as="geometry" />
        </mxCell>
        <mxCell id="tu22LOOGb7ljT6TSJ0Hp-3" value="V" style="text;html=1;strokeColor=none;fillColor=none;align=center;verticalAlign=middle;whiteSpace=wrap;rounded=0;" vertex="1" parent="1">
          <mxGeometry x="160" y="200" width="40" height="40" as="geometry" />
        </mxCell>
        <mxCell id="tu22LOOGb7ljT6TSJ0Hp-4" value="" style="endArrow=classic;html=1;rounded=0;exitX=1;exitY=0.5;exitDx=0;exitDy=0;" edge="1" parent="1" source="tu22LOOGb7ljT6TSJ0Hp-1">
          <mxGeometry width="50" height="50" relative="1" as="geometry">
            <mxPoint x="290" y="150" as="sourcePoint" />
            <mxPoint x="240" y="140" as="targetPoint" />
          </mxGeometry>
        </mxCell>
        <mxCell id="tu22LOOGb7ljT6TSJ0Hp-5" value="" style="endArrow=classic;html=1;rounded=0;exitX=1;exitY=0.5;exitDx=0;exitDy=0;" edge="1" parent="1">
          <mxGeometry width="50" height="50" relative="1" as="geometry">
            <mxPoint x="200" y="179.8" as="sourcePoint" />
            <mxPoint x="240" y="179.8" as="targetPoint" />
          </mxGeometry>
        </mxCell>
        <mxCell id="tu22LOOGb7ljT6TSJ0Hp-6" value="矩阵相乘" style="rounded=1;whiteSpace=wrap;html=1;" vertex="1" parent="1">
          <mxGeometry x="240" y="130" width="40" height="60" as="geometry" />
        </mxCell>
        <mxCell id="tu22LOOGb7ljT6TSJ0Hp-7" value="" style="endArrow=classic;html=1;rounded=0;exitX=1;exitY=0.5;exitDx=0;exitDy=0;" edge="1" parent="1">
          <mxGeometry width="50" height="50" relative="1" as="geometry">
            <mxPoint x="280" y="159.60000000000002" as="sourcePoint" />
            <mxPoint x="320" y="159.60000000000002" as="targetPoint" />
          </mxGeometry>
        </mxCell>
        <mxCell id="tu22LOOGb7ljT6TSJ0Hp-8" value="缩放" style="rounded=1;whiteSpace=wrap;html=1;" vertex="1" parent="1">
          <mxGeometry x="320" y="130" width="40" height="60" as="geometry" />
        </mxCell>
        <mxCell id="tu22LOOGb7ljT6TSJ0Hp-9" value="" style="endArrow=classic;html=1;rounded=0;exitX=1;exitY=0.5;exitDx=0;exitDy=0;" edge="1" parent="1">
          <mxGeometry width="50" height="50" relative="1" as="geometry">
            <mxPoint x="360" y="160.00000000000003" as="sourcePoint" />
            <mxPoint x="400" y="160.00000000000003" as="targetPoint" />
          </mxGeometry>
        </mxCell>
        <mxCell id="tu22LOOGb7ljT6TSJ0Hp-10" value="掩码&lt;br&gt;（可选)" style="rounded=1;whiteSpace=wrap;html=1;" vertex="1" parent="1">
          <mxGeometry x="400" y="130" width="40" height="60" as="geometry" />
        </mxCell>
        <mxCell id="tu22LOOGb7ljT6TSJ0Hp-11" value="" style="endArrow=classic;html=1;rounded=0;exitX=1;exitY=0.5;exitDx=0;exitDy=0;" edge="1" parent="1">
          <mxGeometry width="50" height="50" relative="1" as="geometry">
            <mxPoint x="440" y="159.60000000000002" as="sourcePoint" />
            <mxPoint x="480" y="159.60000000000002" as="targetPoint" />
          </mxGeometry>
        </mxCell>
        <mxCell id="tu22LOOGb7ljT6TSJ0Hp-12" value="Softmax" style="rounded=1;whiteSpace=wrap;html=1;" vertex="1" parent="1">
          <mxGeometry x="480" y="130" width="40" height="60" as="geometry" />
        </mxCell>
        <mxCell id="tu22LOOGb7ljT6TSJ0Hp-13" value="" style="endArrow=classic;html=1;rounded=0;exitX=1;exitY=0.5;exitDx=0;exitDy=0;" edge="1" parent="1">
          <mxGeometry width="50" height="50" relative="1" as="geometry">
            <mxPoint x="520" y="160.00000000000003" as="sourcePoint" />
            <mxPoint x="560" y="160.00000000000003" as="targetPoint" />
          </mxGeometry>
        </mxCell>
        <mxCell id="tu22LOOGb7ljT6TSJ0Hp-15" value="矩阵相乘" style="rounded=1;whiteSpace=wrap;html=1;" vertex="1" parent="1">
          <mxGeometry x="560" y="130" width="40" height="60" as="geometry" />
        </mxCell>
        <mxCell id="tu22LOOGb7ljT6TSJ0Hp-16" value="" style="endArrow=none;html=1;rounded=0;" edge="1" parent="1" target="tu22LOOGb7ljT6TSJ0Hp-3">
          <mxGeometry width="50" height="50" relative="1" as="geometry">
            <mxPoint x="180" y="280" as="sourcePoint" />
            <mxPoint x="250" y="270" as="targetPoint" />
          </mxGeometry>
        </mxCell>
        <mxCell id="tu22LOOGb7ljT6TSJ0Hp-17" value="" style="endArrow=none;html=1;rounded=0;" edge="1" parent="1">
          <mxGeometry width="50" height="50" relative="1" as="geometry">
            <mxPoint x="580" y="280" as="sourcePoint" />
            <mxPoint x="180" y="280" as="targetPoint" />
          </mxGeometry>
        </mxCell>
        <mxCell id="tu22LOOGb7ljT6TSJ0Hp-18" value="" style="endArrow=classic;html=1;rounded=0;entryX=0.5;entryY=1;entryDx=0;entryDy=0;" edge="1" parent="1" target="tu22LOOGb7ljT6TSJ0Hp-15">
          <mxGeometry width="50" height="50" relative="1" as="geometry">
            <mxPoint x="580" y="280" as="sourcePoint" />
            <mxPoint x="610" y="230" as="targetPoint" />
          </mxGeometry>
        </mxCell>
      </root>
    </mxGraphModel>
  </diagram>
</mxfile>
